<!-- Generated by IcoMoon.io -->
<svg version="1.1" xmlns="http://www.w3.org/2000/svg" width="42" height="42" viewBox="0 0 42 42">
<title>bin</title>
<path fill="#f00" d="M5.25 13.125v26.25c0 1.444 1.181 2.625 2.625 2.625h23.625c1.444 0 2.625-1.181 2.625-2.625v-26.25h-28.875zM13.125 36.75h-2.625v-18.375h2.625v18.375zM18.375 36.75h-2.625v-18.375h2.625v18.375zM23.625 36.75h-2.625v-18.375h2.625v18.375zM28.875 36.75h-2.625v-18.375h2.625v18.375z"></path>
<path fill="#f00" d="M34.781 5.25h-8.531v-3.281c0-1.083-0.886-1.969-1.969-1.969h-9.188c-1.083 0-1.969 0.886-1.969 1.969v3.281h-8.531c-1.083 0-1.969 0.886-1.969 1.969v3.281h34.125v-3.281c0-1.083-0.886-1.969-1.969-1.969zM23.625 5.25h-7.875v-2.592h7.875v2.592z"></path>
</svg>
