<!-- Generated by IcoMoon.io -->
<svg version="1.1" xmlns="http://www.w3.org/2000/svg" width="26" height="26" viewBox="0 0 26 26">
<title>cancel-circle</title>
<path fill="#595959" d="M13 0c-7.18 0-13 5.82-13 13s5.82 13 13 13 13-5.82 13-13-5.82-13-13-13zM13 23.563c-5.833 0-10.563-4.729-10.563-10.563s4.729-10.563 10.563-10.563 10.563 4.729 10.563 10.563-4.729 10.563-10.563 10.563z"></path>
<path fill="#595959" d="M17.063 6.5l-4.063 4.063-4.063-4.063-2.438 2.438 4.063 4.063-4.063 4.063 2.438 2.438 4.063-4.063 4.063 4.063 2.438-2.438-4.063-4.063 4.063-4.063z"></path>
</svg>
